<?xml version="1.0" standalone="no"?>
<!DOCTYPE svg PUBLIC "-//W3C//DTD SVG 20010904//EN"
 "http://www.w3.org/TR/2001/REC-SVG-20010904/DTD/svg10.dtd">
<svg version="1.0" xmlns="http://www.w3.org/2000/svg"
 width="300.000000pt" height="300.000000pt" viewBox="0 0 300.000000 300.000000"
 preserveAspectRatio="xMidYMid meet">
<metadata>
Created by potrace 1.10, written by Peter Selinger 2001-2011
</metadata>
<g transform="translate(0.000000,300.000000) scale(0.100000,-0.100000)"
fill="#000000" stroke="none">
<path d="M1477 2428 c-11 -9 -17 -31 -19 -68 -3 -62 6 -56 -130 -85 -102 -22
-315 -125 -259 -125 6 0 11 3 11 8 0 9 74 42 94 42 8 0 18 5 21 10 3 6 16 10
29 10 12 0 27 5 33 11 5 5 24 11 42 11 17 1 31 5 31 10 0 5 6 8 13 7 6 -1 19
0 27 4 8 3 27 7 43 10 28 4 29 4 31 -55 2 -32 -20 -46 -27 -17 -8 29 -51 41
-100 28 -23 -6 -47 -12 -54 -13 -7 -1 -16 -5 -19 -9 -4 -4 -16 -7 -26 -7 -10
0 -18 -4 -18 -10 0 -5 -8 -10 -17 -10 -10 0 -29 -9 -43 -20 -14 -11 -28 -20
-32 -20 -26 -1 -210 -190 -232 -238 -10 -23 -23 -39 -27 -36 -5 3 -9 -6 -9
-20 0 -14 -5 -26 -11 -26 -6 0 -9 -6 -6 -14 3 -7 -1 -25 -8 -39 -24 -47 -35
-119 -22 -147 20 -40 65 -34 97 13 14 21 27 50 28 65 1 14 7 31 12 36 6 6 10
18 10 28 0 10 3 18 8 18 4 0 15 20 25 44 26 64 153 187 230 224 97 47 134 62
150 62 8 0 29 13 46 29 18 17 34 31 37 33 2 2 13 -12 24 -29 11 -18 22 -33 24
-33 19 0 63 35 73 57 l11 28 10 -25 c14 -35 27 -45 100 -69 140 -45 266 -138
341 -250 68 -103 78 -143 27 -112 -45 28 -72 26 -106 -8 l-29 -28 -10 27 c-5
16 -7 31 -4 34 4 3 1 6 -5 6 -7 0 -12 9 -12 20 0 50 -72 132 -147 168 -37 18
-66 20 -292 21 l-251 2 -25 -24 -26 -24 3 -396 c2 -308 6 -399 16 -409 10 -10
74 -14 256 -16 281 -4 324 3 391 65 37 35 75 96 75 121 0 6 5 14 12 18 8 5 9
2 5 -9 -3 -9 -3 -16 1 -15 4 2 19 -10 34 -25 33 -33 75 -35 113 -5 l28 22 -6
-33 c-16 -80 -194 -271 -252 -271 -13 0 -16 6 -13 25 3 16 -1 30 -13 41 -17
16 -28 16 -141 1 -71 -8 -128 -11 -134 -6 -6 5 -14 5 -20 -1 -5 -5 -37 -3 -81
5 -39 7 -81 11 -92 8 -12 -3 -35 0 -51 7 -28 12 -33 10 -56 -11 -13 -13 -22
-29 -19 -36 9 -26 -25 -25 -58 0 -84 66 -177 176 -177 211 0 9 -4 16 -10 16
-5 0 -10 10 -11 23 -1 36 -52 131 -77 142 -12 5 -22 13 -22 18 0 4 -11 -3 -25
-17 -29 -29 -32 -65 -10 -129 27 -81 49 -122 109 -213 34 -50 124 -132 191
-174 56 -35 80 -46 160 -75 83 -30 116 -31 138 -7 20 22 22 68 5 75 -16 7 9
27 32 27 30 0 43 -16 31 -38 -6 -12 -11 -71 -11 -139 1 -125 9 -153 47 -153
40 0 47 25 48 157 0 107 -3 127 -18 140 -23 22 -6 33 52 33 42 0 43 -1 28 -18
-10 -10 -17 -23 -17 -29 0 -6 -7 -14 -16 -17 -14 -5 -13 -10 8 -31 30 -33 49
-32 183 8 34 11 93 41 152 80 106 70 197 175 253 292 13 28 27 58 32 68 16 33
12 117 -8 138 -31 35 -52 25 -102 -47 -11 -16 -14 -17 -19 -4 -3 8 -21 30 -40
49 -18 18 -33 35 -33 37 0 2 60 4 133 4 138 0 275 11 295 24 15 9 16 51 1 74
-9 15 -21 16 -75 12 -36 -3 -67 -4 -70 -1 -2 2 -4 19 -4 36 0 18 -9 67 -20
111 -77 301 -314 525 -622 588 -120 25 -114 27 -110 -52 4 -72 -10 -101 -43
-88 -23 9 -22 271 1 280 27 11 44 -13 44 -63 l0 -46 45 -3 c119 -8 289 -74
394 -153 l54 -41 41 41 c40 39 42 40 54 20 11 -18 9 -24 -23 -56 -19 -19 -35
-36 -35 -38 0 -1 16 -20 35 -41 20 -22 54 -67 77 -101 23 -34 43 -61 45 -59 8
7 -17 54 -55 105 -23 30 -39 59 -35 64 3 5 0 13 -7 17 -19 11 10 52 33 46 21
-5 116 68 133 103 21 41 -15 124 -61 141 -25 9 -77 -2 -103 -23 -15 -12 -62
-104 -62 -121 0 -11 -48 -56 -60 -56 -4 0 -25 14 -46 31 -77 61 -237 125 -332
131 -23 2 -42 7 -42 12 0 4 -6 6 -14 3 -10 -4 -15 7 -19 40 -6 60 -40 81 -80
51z m778 -113 c17 -16 25 -35 25 -60 0 -25 -8 -44 -25 -60 -16 -17 -35 -25
-60 -25 -25 0 -44 8 -60 25 -17 16 -25 35 -25 60 0 25 8 44 25 60 16 17 35 25
60 25 25 0 44 -8 60 -25z m-618 -64 c21 4 43 -2 43 -11 0 -7 -6 -7 -20 0 -14
7 -20 7 -20 0 0 -5 -7 -10 -15 -10 -8 0 -19 -9 -25 -20 -14 -27 -37 -15 -37
20 0 16 4 27 8 24 4 -2 10 0 14 6 4 7 12 7 25 0 11 -6 23 -10 27 -9z m-242
-70 c0 -21 -9 -27 -70 -46 -228 -70 -416 -266 -450 -472 -6 -39 -9 -43 -36
-43 -36 0 -37 13 -8 106 57 185 179 328 354 415 80 40 167 69 195 66 9 -1 15
-12 15 -26z m343 0 c195 -68 350 -217 428 -410 13 -33 27 -80 31 -106 6 -47 6
-47 -22 -43 -26 3 -30 9 -42 62 -43 190 -229 384 -428 446 -79 25 -99 39 -89
63 8 23 26 21 122 -12z m1 -266 c85 -47 121 -107 122 -200 1 -63 -30 -129 -70
-153 l-28 -15 43 -41 c100 -97 76 -263 -50 -341 l-49 -30 -274 -3 -273 -3 0
411 0 412 263 -4 262 -3 54 -30z m498 -186 c-3 -10 -1 -19 5 -21 5 -2 11 -15
13 -28 1 -14 6 -44 10 -67 7 -39 6 -42 -16 -47 -55 -11 -99 -14 -103 -7 -6 9
-84 6 -93 -3 -4 -3 -28 -6 -54 -6 -49 0 -59 -9 -59 -53 0 -29 13 -48 36 -52
10 -2 21 -4 23 -4 2 -1 -14 -14 -37 -30 -22 -16 -43 -35 -47 -41 -3 -5 -11 -8
-16 -4 -5 3 -7 10 -3 15 9 16 -16 82 -47 121 -26 33 -28 40 -17 58 7 11 16 20
20 20 5 0 8 7 8 15 0 8 5 15 10 15 6 0 10 12 10 28 l1 27 27 -30 c15 -16 37
-38 49 -48 21 -19 23 -18 64 5 28 15 48 36 60 63 14 31 19 35 19 17 0 -21 20
-61 45 -88 21 -24 95 48 95 93 0 8 -5 11 -11 7 -7 -4 -10 2 -8 17 2 13 0 29
-3 35 -4 6 0 11 8 11 10 0 14 -7 11 -18z m-211 -7 c6 -4 16 -17 23 -30 26 -49
-48 -104 -89 -67 -22 20 -27 74 -8 93 13 13 57 16 74 4z m410 -207 c4 -8 1
-22 -6 -30 -10 -12 -50 -15 -236 -15 -203 0 -224 2 -232 18 -21 40 -11 42 234
42 200 0 235 -2 240 -15z m-1549 -197 c59 -200 223 -364 424 -426 77 -23 89
-30 89 -49 0 -34 -15 -36 -93 -13 -124 38 -203 85 -297 180 -94 94 -146 175
-180 280 -25 77 -22 100 13 100 20 0 26 -9 44 -72z m1146 55 c48 -54 -3 -124
-69 -94 -18 8 -24 18 -24 42 0 59 57 91 93 52z m164 1 c3 -8 -6 -52 -21 -97
-71 -215 -240 -376 -470 -446 -61 -19 -72 -20 -84 -7 -23 22 -7 44 40 56 190
48 346 174 428 343 22 46 40 91 40 100 0 8 4 27 10 41 11 29 47 36 57 10z
m-928 -343 c11 -7 18 -23 19 -46 1 -35 0 -36 -31 -33 -30 3 -32 5 -34 46 -1
44 9 52 46 33z m511 1 c0 -5 -12 -13 -27 -19 -26 -10 -26 -11 -5 -12 12 -1 22
-5 22 -10 0 -5 -10 -12 -22 -14 -20 -4 -19 -4 5 -6 39 -2 33 -21 -7 -21 -32 0
-33 1 -33 39 0 35 3 40 26 44 14 2 29 5 34 6 4 0 7 -3 7 -7z m-372 -24 c12
-10 18 -78 6 -78 -3 0 -14 5 -25 10 -12 7 -26 7 -36 2 -20 -10 -43 -5 -43 9 0
5 8 9 18 9 16 1 16 1 0 14 -20 15 -24 42 -6 48 17 6 71 -3 86 -14z m54 -20 c2
-21 8 -33 18 -33 10 0 16 12 18 33 4 38 22 44 22 6 0 -53 -38 -82 -68 -52 -14
14 -16 78 -3 78 6 0 11 -15 13 -32z m130 -10 c10 -23 15 -44 12 -47 -4 -3 -9
0 -11 7 -6 15 -40 16 -45 1 -2 -7 -9 -10 -14 -8 -11 4 21 89 34 89 4 0 15 -19
24 -42z m93 0 c1 -37 -8 -48 -20 -28 -9 15 -25 12 -25 -6 0 -8 -4 -12 -10 -9
-5 3 -10 24 -10 46 0 39 1 40 33 37 30 -3 32 -6 32 -40z m-147 -239 c2 -103 0
-128 -13 -139 -12 -10 -18 -10 -30 0 -12 10 -15 38 -15 135 0 67 3 125 7 129
4 4 16 6 28 4 19 -3 20 -11 23 -129z"/>
<path d="M2171 2276 c-15 -17 1 -56 23 -56 23 0 41 30 29 48 -14 23 -37 26
-52 8z"/>
<path d="M1217 1889 c24 -25 33 -46 36 -79 l4 -45 1 50 c0 46 -2 52 -36 79
l-37 30 32 -35z"/>
<path d="M1340 1702 l0 -87 153 3 c137 3 154 6 175 25 32 30 30 86 -4 121 -26
26 -28 26 -175 26 l-149 0 0 -88z m144 56 c-3 -5 0 -8 5 -8 6 0 11 4 11 8 0 5
15 7 33 6 17 -1 32 -3 32 -4 0 -1 12 -3 27 -4 25 -3 68 -38 68 -56 0 -5 -11
-18 -24 -31 -20 -20 -34 -22 -120 -24 -64 -1 -96 2 -96 9 0 6 -4 4 -10 -4 -14
-22 -47 13 -48 51 -1 44 24 64 80 64 25 0 44 -3 42 -7z"/>
<path d="M1253 1685 c0 -44 2 -61 4 -37 2 23 2 59 0 80 -2 20 -4 1 -4 -43z"/>
<path d="M1340 1385 l0 -85 155 0 c146 0 155 1 175 22 11 13 20 35 20 54 0 82
-27 94 -210 94 l-140 0 0 -85z m300 30 c23 -22 27 -32 19 -42 -6 -7 -8 -13 -3
-13 5 0 -2 -7 -15 -16 -33 -23 -237 -26 -263 -4 -22 18 -24 66 -3 74 8 3 15 9
14 13 -1 4 -1 11 0 15 0 4 50 6 111 5 105 -3 111 -4 140 -32z"/>
<path d="M1330 1006 c0 -13 37 -43 53 -43 10 0 17 8 17 19 0 11 -7 18 -19 18
-11 0 -26 3 -35 6 -9 3 -16 3 -16 0z"/>
<path d="M1040 2365 c-41 -30 -33 -32 21 -5 38 20 59 20 59 0 0 -5 -20 -18
-45 -29 -53 -24 -56 -29 -13 -23 43 6 72 34 63 61 -9 29 -43 27 -85 -4z"/>
<path d="M1884 2375 c-9 -24 3 -44 33 -56 15 -6 36 -15 45 -20 22 -11 31 -11
24 0 -3 5 -26 18 -51 30 -25 12 -45 28 -45 36 0 20 13 19 63 -5 l42 -21 -28
26 c-31 28 -74 33 -83 10z"/>
<path d="M769 2350 c-61 -32 -91 -148 -44 -174 11 -6 22 -14 25 -18 3 -4 25
-9 49 -12 31 -3 53 -14 79 -38 19 -18 32 -27 27 -20 -6 11 -3 11 14 0 20 -12
20 -13 -13 -48 -39 -41 -84 -107 -115 -167 -38 -76 -22 -60 29 28 28 48 68
106 90 130 33 37 41 41 50 29 8 -13 10 -13 10 -1 0 8 15 27 33 43 26 23 28 28
10 23 -16 -4 -25 1 -36 22 -37 72 -47 87 -47 74 0 -35 -13 3 -14 41 -1 24 -6
50 -11 58 -29 44 -85 56 -136 30z m101 -30 c23 -23 34 -62 27 -92 -5 -16 4
-30 38 -61 47 -40 54 -57 32 -75 -10 -8 -24 0 -60 34 -41 38 -53 44 -90 44
-57 0 -89 32 -89 86 0 71 93 113 142 64z"/>
<path d="M790 2275 c-15 -18 -7 -43 16 -52 24 -9 46 24 33 48 -12 23 -32 24
-49 4z"/>
<path d="M687 2002 c-10 -10 -17 -25 -17 -33 0 -8 11 -1 24 16 19 23 27 27 36
18 10 -9 6 -19 -14 -46 -30 -40 -34 -55 -7 -28 33 33 44 60 30 77 -16 19 -33
18 -52 -4z"/>
<path d="M2271 2006 c-15 -17 4 -59 39 -91 l23 -20 -13 25 c-7 14 -22 37 -32
53 -17 24 -18 28 -3 33 9 4 17 5 19 3 2 -2 15 -22 29 -44 15 -22 27 -35 27
-30 0 18 -50 85 -64 85 -8 0 -19 -6 -25 -14z"/>
<path d="M585 1749 c-14 -43 45 -66 61 -24 8 19 -13 45 -37 45 -10 0 -21 -10
-24 -21z m53 -12 c4 -20 -25 -34 -40 -19 -15 15 -1 44 19 40 10 -2 19 -11 21
-21z"/>
<path d="M2371 1761 c-9 -6 -11 -18 -7 -36 5 -21 12 -26 34 -23 20 2 28 9 30
27 5 34 -26 51 -57 32z m47 -24 c4 -20 -25 -34 -40 -19 -15 15 -1 44 19 40 10
-2 19 -11 21 -21z"/>
<path d="M975 1738 c-15 -14 -28 -38 -31 -59 -5 -30 -1 -41 25 -72 l32 -36 41
19 c54 24 76 48 84 90 4 19 4 32 0 29 -4 -4 -21 7 -37 22 -38 35 -78 37 -114
7z m81 -16 c6 -4 16 -17 23 -30 10 -19 10 -28 -3 -48 -47 -71 -136 -9 -96 67
11 19 54 26 76 11z"/>
<path d="M690 1560 c0 -5 -23 -10 -51 -10 -38 0 -55 -5 -65 -17 -19 -25 -17
-47 4 -66 27 -24 446 -25 480 -1 42 29 23 84 -29 84 -15 0 -31 5 -34 10 -4 7
-12 7 -25 0 -24 -13 -40 -13 -20 0 13 8 12 10 -2 10 -10 0 -18 -4 -18 -9 0
-12 -200 -12 -222 0 -12 6 -18 6 -18 -1z m368 -42 c7 -7 8 -17 1 -30 -9 -17
-26 -18 -239 -18 -208 0 -230 2 -238 18 -21 40 -10 42 232 42 162 0 235 -3
244 -12z"/>
<path d="M985 1401 c-22 -13 -32 -29 -39 -61 -9 -41 -8 -44 24 -72 26 -24 38
-29 64 -24 31 6 96 67 96 90 0 19 -62 74 -90 80 -15 3 -38 -2 -55 -13z m84
-37 c26 -33 26 -49 1 -74 -39 -39 -100 -16 -100 37 0 60 63 83 99 37z"/>
<path d="M2265 1288 c-11 -51 -91 -206 -133 -257 -20 -25 -54 -63 -74 -85 -21
-21 -35 -43 -32 -48 3 -5 9 -7 12 -4 3 3 16 -12 30 -35 18 -31 22 -48 18 -75
-4 -19 -3 -34 2 -34 5 0 15 -11 22 -25 7 -14 19 -25 25 -25 7 0 18 -6 24 -14
17 -20 34 -15 86 24 47 35 64 76 50 122 -9 29 -44 68 -62 68 -7 0 -13 5 -13
11 0 5 -5 7 -11 3 -10 -6 -80 19 -106 39 -9 6 0 24 33 63 65 80 160 282 141
300 -3 3 -8 -10 -12 -28z m-77 -402 c21 4 36 -1 60 -21 45 -38 45 -92 1 -129
-41 -34 -73 -33 -111 4 -27 27 -30 36 -25 71 5 36 2 43 -31 74 -36 34 -36 34
-17 55 l20 22 37 -41 c32 -34 43 -40 66 -35z"/>
<path d="M2166 814 c-9 -22 12 -46 38 -42 15 2 21 10 21 28 0 20 -6 26 -26 28
-18 2 -29 -3 -33 -14z"/>
<path d="M595 1301 c-4 -7 3 -10 17 -8 14 1 23 -4 26 -16 5 -26 -28 -34 -46
-11 -8 10 -12 13 -10 5 2 -8 12 -19 21 -25 24 -15 56 17 41 42 -13 20 -40 27
-49 13z"/>
<path d="M2364 1285 c-9 -35 18 -60 46 -43 23 15 24 21 10 49 -15 28 -48 24
-56 -6z m46 0 c13 -16 6 -35 -15 -35 -18 0 -28 17 -21 35 7 19 20 19 36 0z"/>
<path d="M2295 1083 c-28 -43 -32 -71 -10 -80 20 -7 51 21 64 58 13 39 9 37
-24 -12 -20 -31 -30 -38 -38 -30 -12 12 -10 16 31 79 25 38 4 24 -23 -15z"/>
<path d="M690 1106 c0 -4 11 -22 25 -40 19 -25 22 -35 13 -44 -8 -8 -8 -12 -1
-12 18 0 24 31 11 49 -27 33 -48 54 -48 47z"/>
<path d="M660 1077 c0 -14 33 -67 43 -67 9 0 -3 24 -27 55 -8 11 -16 16 -16
12z"/>
<path d="M890 942 c-14 -9 -27 -19 -30 -22 -3 -3 -16 -7 -30 -9 -79 -11 -128
-68 -117 -136 7 -42 21 -57 65 -73 64 -22 130 25 136 97 2 24 13 56 25 71 30
41 26 45 -14 13 -32 -25 -34 -30 -28 -70 5 -37 2 -45 -25 -72 -69 -69 -165 -9
-140 87 7 25 18 37 44 48 20 8 43 12 53 9 11 -3 30 8 56 35 42 43 43 48 5 22z"/>
<path d="M785 820 c-11 -17 5 -50 24 -50 28 0 46 26 31 45 -14 17 -46 20 -55
5z"/>
<path d="M1083 689 c20 -11 37 -24 37 -29 0 -19 -22 -21 -46 -5 -14 9 -28 14
-31 12 -3 -3 9 -13 27 -22 60 -31 85 10 28 45 -18 11 -37 20 -43 20 -5 -1 7
-10 28 -21z"/>
<path d="M1902 694 c-28 -19 -26 -58 3 -62 11 -1 36 9 54 23 42 30 34 32 -19
5 -25 -13 -41 -16 -45 -9 -8 12 13 39 31 39 7 0 16 5 19 10 10 16 -18 12 -43
-6z"/>
</g>
</svg>
